{"accessors":[{"bufferView":0,"byteOffset":0,"componentType":5123,"count":378,"max":[97],"min":[0],"type":"SCALAR"},{"bufferView":1,"byteOffset":0,"componentType":5126,"count":98,"max":[0.8058571815490723,0.7575703263282776,0.7337229251861572],"min":[-0.8058571815490723,-0.993571937084198,-0.7337229251861572],"type":"VEC3"},{"bufferView":1,"byteOffset":1176,"componentType":5126,"count":98,"max":[8.414209365844727,0.4738014042377472,6.424408912658691],"min":[4.464771270751953,-1.5060315132141113,2.62715744972229],"type":"VEC3"},{"bufferView":0,"byteOffset":756,"componentType":5123,"count":2,"max":[1],"min":[0],"type":"SCALAR"},{"bufferView":1,"byteOffset":2352,"componentType":5126,"count":2,"max":[9.584239959716797,0.4887526333332062,4.953048229217529],"min":[3.1249237060546875,-0.36163246631622314,4.953048229217529],"type":"VEC3"},{"bufferView":0,"byteOffset":760,"componentType":5123,"count":2,"max":[1],"min":[0],"type":"SCALAR"},{"bufferView":1,"byteOffset":2376,"componentType":5126,"count":2,"max":[5.8004608154296875,4.272531509399414,7.181402683258057],"min":[5.8004608154296875,4.272531509399414,0],"type":"VEC3"},{"bufferView":0,"byteOffset":764,"componentType":5123,"count":168,"max":[53],"min":[0],"type":"SCALAR"},{"bufferView":1,"byteOffset":2400,"componentType":5126,"count":54,"max":[0.36634570360183716,0.8844367861747742,-0.28907158970832825],"min":[0.36634570360183716,0.8844367861747742,-0.28907158970832825],"type":"VEC3"},{"bufferView":1,"byteOffset":3048,"componentType":5126,"count":54,"max":[3.837477684020996,-0.002712366869673133,5.689640045166016],"min":[2.412369966506958,-0.7205525040626526,4.2164530754089355],"type":"VEC3"},{"bufferView":0,"byteOffset":1100,"componentType":5123,"count":168,"max":[53],"min":[0],"type":"SCALAR"},{"bufferView":1,"byteOffset":3696,"componentType":5126,"count":54,"max":[-0.36634570360183716,-0.8844367861747742,0.28907158970832825],"min":[-0.36634570360183716,-0.8844367861747742,0.28907158970832825],"type":"VEC3"},{"bufferView":1,"byteOffset":4344,"componentType":5126,"count":54,"max":[3.837477684020996,-0.002712366869673133,5.689640045166016],"min":[2.412369966506958,-0.7205525040626526,4.2164530754089355],"type":"VEC3"},{"bufferView":0,"byteOffset":1436,"componentType":5123,"count":210,"max":[71],"min":[0],"type":"SCALAR"},{"bufferView":1,"byteOffset":4992,"componentType":5126,"count":72,"max":[0.993571937084198,0.11320319771766663,1],"min":[-0.993571937084198,-0.993571937084198,-1],"type":"VEC3"},{"bufferView":1,"byteOffset":5856,"componentType":5126,"count":72,"max":[8.184321403503418,-0.9731987118721008,5.363007068634033],"min":[7.0837016105651855,-1.226086139678955,4.270077705383301],"type":"VEC3"},{"bufferView":0,"byteOffset":1856,"componentType":5123,"count":78,"max":[26],"min":[0],"type":"SCALAR"},{"bufferView":1,"byteOffset":6720,"componentType":5126,"count":27,"max":[-0.582771897315979,0.7594830989837646,-0.28907158970832825],"min":[-0.582771897315979,0.7594830989837646,-0.28907158970832825],"type":"VEC3"},{"bufferView":1,"byteOffset":7044,"componentType":5126,"count":27,"max":[9.834592819213867,0.6895000338554382,5.249128341674805],"min":[9.333887100219727,0.2880052626132965,4.656968116760254],"type":"VEC3"},{"bufferView":0,"byteOffset":2012,"componentType":5123,"count":78,"max":[26],"min":[0],"type":"SCALAR"},{"bufferView":1,"byteOffset":7368,"componentType":5126,"count":27,"max":[0.582771897315979,-0.7594830989837646,0.28907158970832825],"min":[0.582771897315979,-0.7594830989837646,0.28907158970832825],"type":"VEC3"},{"bufferView":1,"byteOffset":7692,"componentType":5126,"count":27,"max":[9.834592819213867,0.6895000338554382,5.249128341674805],"min":[9.333887100219727,0.2880052626132965,4.656968116760254],"type":"VEC3"},{"bufferView":0,"byteOffset":2168,"componentType":5123,"count":66,"max":[23],"min":[0],"type":"SCALAR"},{"bufferView":1,"byteOffset":8016,"componentType":5126,"count":24,"max":[-4.7745460526601796e-17,-1,1.0515819648190577e-31],"min":[-4.7745460526601796e-17,-1,1.0515819648190577e-31],"type":"VEC3"},{"bufferView":1,"byteOffset":8304,"componentType":5126,"count":24,"max":[9.764127731323242,3.201824903488159,8.101400375366211],"min":[8.504128456115723,3.201824903488159,6.841401100158691],"type":"VEC3"},{"bufferView":0,"byteOffset":2300,"componentType":5123,"count":66,"max":[23],"min":[0],"type":"SCALAR"},{"bufferView":1,"byteOffset":8592,"componentType":5126,"count":24,"max":[2.4245698722311667e-16,-1,5.853429652330315e-16],"min":[2.4245698722311667e-16,-1,5.853429652330315e-16],"type":"VEC3"},{"bufferView":1,"byteOffset":8880,"componentType":5126,"count":24,"max":[3.0157039165496826,3.201824903488159,7.96381139755249],"min":[1.755704641342163,3.201824903488159,6.7038116455078125],"type":"VEC3"},{"bufferView":0,"byteOffset":2432,"componentType":5123,"count":144,"max":[47],"min":[0],"type":"SCALAR"},{"bufferView":1,"byteOffset":9168,"componentType":5126,"count":48,"max":[1,1,1.713381951475143e-16],"min":[-1,-1,4.875249005665855e-17],"type":"VEC3"},{"bufferView":1,"byteOffset":9744,"componentType":5126,"count":48,"max":[8.733155250549316,7.205227375030518,7.181402683258057],"min":[2.8677666187286377,1.3398380279541016,0],"type":"VEC3"},{"bufferView":0,"byteOffset":2720,"componentType":5123,"count":189,"max":[51],"min":[0],"type":"SCALAR"},{"bufferView":1,"byteOffset":10320,"componentType":5126,"count":52,"max":[0.7455968260765076,0.6662217974662781,0.7457535862922668],"min":[-0.7455968260765076,-1,-0.8751866221427917],"type":"VEC3"},{"bufferView":1,"byteOffset":10944,"componentType":5126,"count":52,"max":[3.436244010925293,3.529789447784424,8.400339126586914],"min":[1.4188882112503052,3.201824903488159,6.7003397941589355],"type":"VEC3"},{"bufferView":0,"byteOffset":3098,"componentType":5123,"count":183,"max":[49],"min":[0],"type":"SCALAR"},{"bufferView":1,"byteOffset":11568,"componentType":5126,"count":50,"max":[0.7455968260765076,0.6662217974662781,0.7457535862922668],"min":[-0.7455968260765076,-1,-0.6916636824607849],"type":"VEC3"},{"bufferView":1,"byteOffset":12168,"componentType":5126,"count":50,"max":[10.097249031066895,3.529789447784424,8.474648475646973],"min":[8.079893112182617,3.201824903488159,6.774646759033203],"type":"VEC3"},{"bufferView":0,"byteOffset":3464,"componentType":5123,"count":33,"max":[12],"min":[0],"type":"SCALAR"},{"bufferView":1,"byteOffset":12768,"componentType":5126,"count":13,"max":[0.08710675686597824,-0.9047436118125916,-0.416954904794693],"min":[0.08710675686597824,-0.9047436118125916,-0.416954904794693],"type":"VEC3"},{"bufferView":1,"byteOffset":12924,"componentType":5126,"count":13,"max":[7.408806800842285,-1.002264380455017,2.9176650047302246],"min":[5.52238655090332,-1.4056521654129028,2.2592644691467285],"type":"VEC3"},{"bufferView":0,"byteOffset":3530,"componentType":5123,"count":168,"max":[53],"min":[0],"type":"SCALAR"},{"bufferView":1,"byteOffset":13080,"componentType":5126,"count":54,"max":[-0.582771897315979,0.7594830989837646,-0.28907158970832825],"min":[-0.582771897315979,0.7594830989837646,-0.28907158970832825],"type":"VEC3"},{"bufferView":1,"byteOffset":13728,"componentType":5126,"count":54,"max":[10.193710327148438,0.9758036732673645,5.670463562011719],"min":[8.974766731262207,0.0017015795456245542,4.235630035400391],"type":"VEC3"},{"bufferView":0,"byteOffset":3866,"componentType":5123,"count":168,"max":[53],"min":[0],"type":"SCALAR"},{"bufferView":1,"byteOffset":14376,"componentType":5126,"count":54,"max":[0.582771897315979,-0.7594830989837646,0.28907158970832825],"min":[0.582771897315979,-0.7594830989837646,0.28907158970832825],"type":"VEC3"},{"bufferView":1,"byteOffset":15024,"componentType":5126,"count":54,"max":[10.193710327148438,0.9758036732673645,5.670463562011719],"min":[8.974766731262207,0.0017015795456245542,4.235630035400391],"type":"VEC3"},{"bufferView":0,"byteOffset":4202,"componentType":5123,"count":78,"max":[26],"min":[0],"type":"SCALAR"},{"bufferView":1,"byteOffset":15672,"componentType":5126,"count":27,"max":[0.36634570360183716,0.8844367861747742,-0.28907158970832825],"min":[0.36634570360183716,0.8844367861747742,-0.28907158970832825],"type":"VEC3"},{"bufferView":1,"byteOffset":15996,"componentType":5126,"count":27,"max":[3.41096568107605,-0.2173464000225067,5.249785900115967],"min":[2.8388819694519043,-0.5059184432029724,4.656307697296143],"type":"VEC3"},{"bufferView":0,"byteOffset":4358,"componentType":5123,"count":78,"max":[26],"min":[0],"type":"SCALAR"},{"bufferView":1,"byteOffset":16320,"componentType":5126,"count":27,"max":[-0.36634570360183716,-0.8844367861747742,0.28907158970832825],"min":[-0.36634570360183716,-0.8844367861747742,0.28907158970832825],"type":"VEC3"},{"bufferView":1,"byteOffset":16644,"componentType":5126,"count":27,"max":[3.41096568107605,-0.2173464000225067,5.249785900115967],"min":[2.8388819694519043,-0.5059184432029724,4.656307697296143],"type":"VEC3"},{"bufferView":0,"byteOffset":4514,"componentType":5123,"count":45,"max":[16],"min":[0],"type":"SCALAR"},{"bufferView":1,"byteOffset":16968,"componentType":5126,"count":17,"max":[0.7455968260765076,0.6662217974662781,0.7457535862922668],"min":[-0.7455968260765076,-0.7071068286895752,-0.8751866221427917],"type":"VEC3"},{"bufferView":1,"byteOffset":17172,"componentType":5126,"count":17,"max":[3.436244010925293,3.529789447784424,8.400339126586914],"min":[1.4188882112503052,3.201824903488159,6.7003397941589355],"type":"VEC3"},{"bufferView":0,"byteOffset":4604,"componentType":5123,"count":39,"max":[14],"min":[0],"type":"SCALAR"},{"bufferView":1,"byteOffset":17376,"componentType":5126,"count":15,"max":[0.7455968260765076,0.6662217974662781,0.7457535862922668],"min":[-0.7455968260765076,-0.6127145886421204,-0.6916636824607849],"type":"VEC3"},{"bufferView":1,"byteOffset":17556,"componentType":5126,"count":15,"max":[10.097249031066895,3.529789447784424,8.474648475646973],"min":[8.079893112182617,3.201824903488159,6.774646759033203],"type":"VEC3"},{"bufferView":0,"byteOffset":4682,"componentType":5123,"count":210,"max":[71],"min":[0],"type":"SCALAR"},{"bufferView":1,"byteOffset":17736,"componentType":5126,"count":72,"max":[0.993571937084198,0.11320319771766663,1],"min":[-0.993571937084198,-0.993571937084198,-1],"type":"VEC3"},{"bufferView":1,"byteOffset":18600,"componentType":5126,"count":72,"max":[5.960104942321777,-1.2266160249710083,5.366542339324951],"min":[4.852458953857422,-1.4803041219711304,4.266541957855225],"type":"VEC3"},{"bufferView":0,"byteOffset":5102,"componentType":5123,"count":66,"max":[23],"min":[0],"type":"SCALAR"},{"bufferView":1,"byteOffset":19464,"componentType":5126,"count":24,"max":[0.6521556973457336,0.7575703263282776,0.7337229251861572],"min":[-0.8058571815490723,0.5914506912231445,-0.7337229251861572],"type":"VEC3"},{"bufferView":1,"byteOffset":19752,"componentType":5126,"count":24,"max":[8.237610816955566,0.4738014042377472,6.424408912658691],"min":[4.464771270751953,0.043940652161836624,2.62715744972229],"type":"VEC3"},{"bufferView":0,"byteOffset":5234,"componentType":5123,"count":6,"max":[3],"min":[0],"type":"SCALAR"},{"bufferView":1,"byteOffset":20040,"componentType":5126,"count":4,"max":[0.2777858078479767,-0.9363418221473694,0.21470719575881958],"min":[-0.025977369397878647,-0.9984880089759827,0.03256386145949364],"type":"VEC3"},{"bufferView":1,"byteOffset":20088,"componentType":5126,"count":4,"max":[7.242837429046631,-1.0235927104949951,4.520041465759277],"min":[5.8004608154296875,-1.30038321018219,3.5907013416290283],"type":"VEC3"},{"bufferView":0,"byteOffset":5246,"componentType":5123,"count":6,"max":[3],"min":[0],"type":"SCALAR"},{"bufferView":1,"byteOffset":20136,"componentType":5126,"count":4,"max":[0.025977369397878647,0.9984880089759827,-0.03256386145949364],"min":[-0.2777858078479767,0.9363418221473694,-0.21470719575881958],"type":"VEC3"},{"bufferView":1,"byteOffset":20184,"componentType":5126,"count":4,"max":[7.242837429046631,-1.0235927104949951,4.520041465759277],"min":[5.8004608154296875,-1.30038321018219,3.5907013416290283],"type":"VEC3"},{"bufferView":0,"byteOffset":5258,"componentType":5123,"count":1788,"max":[332],"min":[0],"type":"SCALAR"},{"bufferView":1,"byteOffset":20232,"componentType":5126,"count":333,"max":[1,0.9984880089759827,0.9843463897705078],"min":[-1,-1,-0.9843463897705078],"type":"VEC3"},{"bufferView":1,"byteOffset":24228,"componentType":5126,"count":333,"max":[11.373374938964844,9.84544849395752,7.181402683258057],"min":[0.22754420340061188,-1.30038321018219,0],"type":"VEC3"},{"bufferView":0,"byteOffset":8834,"componentType":5123,"count":1920,"max":[380],"min":[0],"type":"SCALAR"},{"bufferView":1,"byteOffset":28224,"componentType":5126,"count":381,"max":[1,1,1],"min":[-1,-0.9984880089759827,-1],"type":"VEC3"},{"bufferView":1,"byteOffset":32796,"componentType":5126,"count":381,"max":[11.373374938964844,9.84544849395752,7.181402683258057],"min":[0.22754420340061188,-1.30038321018219,0],"type":"VEC3"}],"asset":{"generator":"COLLADA2GLTF","version":"2.0"},"bufferViews":[{"buffer":0,"byteLength":12674,"byteOffset":0,"target":34963},{"buffer":0,"byteLength":37368,"byteOffset":12676,"byteStride":12,"target":34962}],"buffers":[{"name":"output","byteLength":50044,"uri":"data:application/octet-stream;base64,"}],"cameras":[{"name":"skp_camera_Last_Saved_SketchUp_View","perspective":{"yfov":0.6108646988868713,"zfar":25.399999618530273,"znear":0.02539999969303608},"type":"perspective"}],"materials":[{"name":"ID5","pbrMetallicRoughness":{"baseColorFactor":[0.6000000238418579,1,0.19607840478420258,1],"metallicFactor":0,"roughnessFactor":1},"emissiveFactor":[0,0,0],"alphaMode":"OPAQUE","doubleSided":false},{"name":"ID129","pbrMetallicRoughness":{"baseColorFactor":[1,1,1,1],"metallicFactor":0,"roughnessFactor":1},"emissiveFactor":[0,0,0],"alphaMode":"OPAQUE","doubleSided":false},{"name":"ID129","pbrMetallicRoughness":{"baseColorFactor":[1,1,1,1],"metallicFactor":0,"roughnessFactor":1},"emissiveFactor":[0,0,0],"alphaMode":"OPAQUE","doubleSided":false},{"name":"ID12","pbrMetallicRoughness":{"baseColorFactor":[1,1,1,1],"metallicFactor":0,"roughnessFactor":1},"emissiveFactor":[0,0,0],"alphaMode":"OPAQUE","doubleSided":false},{"name":"ID66","pbrMetallicRoughness":{"baseColorFactor":[1,1,1,1],"metallicFactor":0,"roughnessFactor":1},"emissiveFactor":[0,0,0],"alphaMode":"OPAQUE","doubleSided":false},{"name":"ID35","pbrMetallicRoughness":{"baseColorFactor":[0.20000000298023224,0.4000000059604645,0,1],"metallicFactor":0,"roughnessFactor":1},"emissiveFactor":[0,0,0],"alphaMode":"OPAQUE","doubleSided":false},{"name":"ID12","pbrMetallicRoughness":{"baseColorFactor":[1,1,1,1],"metallicFactor":0,"roughnessFactor":1},"emissiveFactor":[0,0,0],"alphaMode":"OPAQUE","doubleSided":false},{"name":"ID58","pbrMetallicRoughness":{"baseColorFactor":[0,0,0,1],"metallicFactor":0,"roughnessFactor":1},"emissiveFactor":[0,0,0],"alphaMode":"OPAQUE","doubleSided":false},{"name":"ID97","pbrMetallicRoughness":{"baseColorFactor":[0.13725490868091583,0.13725490868091583,0.13725490868091583,1],"metallicFactor":0,"roughnessFactor":1},"emissiveFactor":[0,0,0],"alphaMode":"OPAQUE","doubleSided":false},{"name":"ID97","pbrMetallicRoughness":{"baseColorFactor":[0.13725490868091583,0.13725490868091583,0.13725490868091583,1],"metallicFactor":0,"roughnessFactor":1},"emissiveFactor":[0,0,0],"alphaMode":"OPAQUE","doubleSided":false},{"name":"ID12","pbrMetallicRoughness":{"baseColorFactor":[1,1,1,1],"metallicFactor":0,"roughnessFactor":1},"emissiveFactor":[0,0,0],"alphaMode":"OPAQUE","doubleSided":false},{"name":"ID18","pbrMetallicRoughness":{"baseColorFactor":[0,0.800000011920929,0,1],"metallicFactor":0,"roughnessFactor":1},"emissiveFactor":[0,0,0],"alphaMode":"OPAQUE","doubleSided":false},{"name":"ID18","pbrMetallicRoughness":{"baseColorFactor":[0,0.800000011920929,0,1],"metallicFactor":0,"roughnessFactor":1},"emissiveFactor":[0,0,0],"alphaMode":"OPAQUE","doubleSided":false},{"name":"ID71","pbrMetallicRoughness":{"baseColorFactor":[0.6980392336845398,1,0.3960784077644348,1],"metallicFactor":0,"roughnessFactor":1},"emissiveFactor":[0,0,0],"alphaMode":"OPAQUE","doubleSided":false},{"name":"ID12","pbrMetallicRoughness":{"baseColorFactor":[1,1,1,1],"metallicFactor":0,"roughnessFactor":1},"emissiveFactor":[0,0,0],"alphaMode":"OPAQUE","doubleSided":false},{"name":"ID66","pbrMetallicRoughness":{"baseColorFactor":[1,1,1,1],"metallicFactor":0,"roughnessFactor":1},"emissiveFactor":[0,0,0],"alphaMode":"OPAQUE","doubleSided":false},{"name":"ID12","pbrMetallicRoughness":{"baseColorFactor":[1,1,1,1],"metallicFactor":0,"roughnessFactor":1},"emissiveFactor":[0,0,0],"alphaMode":"OPAQUE","doubleSided":false},{"name":"ID58","pbrMetallicRoughness":{"baseColorFactor":[0,0,0,1],"metallicFactor":0,"roughnessFactor":1},"emissiveFactor":[0,0,0],"alphaMode":"OPAQUE","doubleSided":false},{"name":"ID12","pbrMetallicRoughness":{"baseColorFactor":[1,1,1,1],"metallicFactor":0,"roughnessFactor":1},"emissiveFactor":[0,0,0],"alphaMode":"OPAQUE","doubleSided":false},{"name":"ID12","pbrMetallicRoughness":{"baseColorFactor":[1,1,1,1],"metallicFactor":0,"roughnessFactor":1},"emissiveFactor":[0,0,0],"alphaMode":"OPAQUE","doubleSided":false},{"name":"ID35","pbrMetallicRoughness":{"baseColorFactor":[0.20000000298023224,0.4000000059604645,0,1],"metallicFactor":0,"roughnessFactor":1},"emissiveFactor":[0,0,0],"alphaMode":"OPAQUE","doubleSided":false},{"name":"ID12","pbrMetallicRoughness":{"baseColorFactor":[1,1,1,1],"metallicFactor":0,"roughnessFactor":1},"emissiveFactor":[0,0,0],"alphaMode":"OPAQUE","doubleSided":false},{"name":"ID12","pbrMetallicRoughness":{"baseColorFactor":[1,1,1,1],"metallicFactor":0,"roughnessFactor":1},"emissiveFactor":[0,0,0],"alphaMode":"OPAQUE","doubleSided":false},{"name":"ID18","pbrMetallicRoughness":{"baseColorFactor":[0,0.800000011920929,0,1],"metallicFactor":0,"roughnessFactor":1},"emissiveFactor":[0,0,0],"alphaMode":"OPAQUE","doubleSided":false},{"name":"ID12","pbrMetallicRoughness":{"baseColorFactor":[1,1,1,1],"metallicFactor":0,"roughnessFactor":1},"emissiveFactor":[0,0,0],"alphaMode":"OPAQUE","doubleSided":false},{"name":"ID18","pbrMetallicRoughness":{"baseColorFactor":[0,0.800000011920929,0,1],"metallicFactor":0,"roughnessFactor":1},"emissiveFactor":[0,0,0],"alphaMode":"OPAQUE","doubleSided":false}],"meshes":[{"name":"ID3","primitives":[{"attributes":{"NORMAL":1,"POSITION":2},"indices":0,"material":0,"mode":4}]},{"name":"ID133","primitives":[{"attributes":{"POSITION":4},"indices":3,"material":1,"mode":1}]},{"name":"ID127","primitives":[{"attributes":{"POSITION":6},"indices":5,"material":2,"mode":1}]},{"name":"ID121","primitives":[{"attributes":{"NORMAL":8,"POSITION":9},"indices":7,"material":3,"mode":4},{"attributes":{"NORMAL":11,"POSITION":12},"indices":10,"material":4,"mode":4}]},{"name":"ID115","primitives":[{"attributes":{"NORMAL":14,"POSITION":15},"indices":13,"material":5,"mode":4}]},{"name":"ID109","primitives":[{"attributes":{"NORMAL":17,"POSITION":18},"indices":16,"material":6,"mode":4},{"attributes":{"NORMAL":20,"POSITION":21},"indices":19,"material":7,"mode":4}]},{"name":"ID103","primitives":[{"attributes":{"NORMAL":23,"POSITION":24},"indices":22,"material":8,"mode":4}]},{"name":"ID95","primitives":[{"attributes":{"NORMAL":26,"POSITION":27},"indices":25,"material":9,"mode":4}]},{"name":"ID89","primitives":[{"attributes":{"NORMAL":29,"POSITION":30},"indices":28,"material":10,"mode":4}]},{"name":"ID83","primitives":[{"attributes":{"NORMAL":32,"POSITION":33},"indices":31,"material":11,"mode":4}]},{"name":"ID77","primitives":[{"attributes":{"NORMAL":35,"POSITION":36},"indices":34,"material":12,"mode":4}]},{"name":"ID69","primitives":[{"attributes":{"NORMAL":38,"POSITION":39},"indices":37,"material":13,"mode":4}]},{"name":"ID61","primitives":[{"attributes":{"NORMAL":41,"POSITION":42},"indices":40,"material":14,"mode":4},{"attributes":{"NORMAL":44,"POSITION":45},"indices":43,"material":15,"mode":4}]},{"name":"ID53","primitives":[{"attributes":{"NORMAL":47,"POSITION":48},"indices":46,"material":16,"mode":4},{"attributes":{"NORMAL":50,"POSITION":51},"indices":49,"material":17,"mode":4}]},{"name":"ID47","primitives":[{"attributes":{"NORMAL":53,"POSITION":54},"indices":52,"material":18,"mode":4}]},{"name":"ID41","primitives":[{"attributes":{"NORMAL":56,"POSITION":57},"indices":55,"material":19,"mode":4}]},{"name":"ID33","primitives":[{"attributes":{"NORMAL":59,"POSITION":60},"indices":58,"material":20,"mode":4}]},{"name":"ID27","primitives":[{"attributes":{"NORMAL":62,"POSITION":63},"indices":61,"material":21,"mode":4}]},{"name":"ID21","primitives":[{"attributes":{"NORMAL":65,"POSITION":66},"indices":64,"material":22,"mode":4},{"attributes":{"NORMAL":68,"POSITION":69},"indices":67,"material":23,"mode":4}]},{"name":"ID11","primitives":[{"attributes":{"NORMAL":71,"POSITION":72},"indices":70,"material":24,"mode":4},{"attributes":{"NORMAL":74,"POSITION":75},"indices":73,"material":25,"mode":4}]}],"nodes":[{"children":[1],"matrix":[1,0,0,0,0,0,-1,0,0,1,0,0,0,0,0,1],"name":"Z_UP"},{"children":[21,20,19,18,17,16,15,14,13,12,11,10,9,8,7,6,5,4,3,2],"mesh":0,"name":"SketchUp"},{"camera":0,"matrix":[0.9142804145812988,0.4050818979740143,2.7755578924351364e-17,0,-0.2397167980670929,0.5410469174385071,0.8061041831970215,0,0.3265382945537567,-0.7370054125785828,0.591773509979248,0,10.20877742767334,-8.860901832580566,13.119797706604004,1],"name":"skp_camera_Last_Saved_SketchUp_View"},{"mesh":1},{"mesh":2},{"mesh":3},{"mesh":4},{"mesh":5},{"mesh":6},{"mesh":7},{"mesh":8},{"mesh":9},{"mesh":10},{"mesh":11},{"mesh":12},{"mesh":13},{"mesh":14},{"mesh":15},{"mesh":16},{"mesh":17},{"mesh":18},{"mesh":19}],"scene":0,"scenes":[{"nodes":[0]}]}
