{"accessors":[{"bufferView":0,"byteOffset":0,"componentType":5123,"count":1173,"max":[614],"min":[0],"type":"SCALAR"},{"bufferView":1,"byteOffset":0,"componentType":5126,"count":615,"max":[1,1,1],"min":[-1,-0.9999992251396179,-1],"type":"VEC3"},{"bufferView":1,"byteOffset":7380,"componentType":5126,"count":615,"max":[0.37446126341819763,1.1505557298660278,3.121339797973633],"min":[-0.37744399905204773,-0.975433886051178,0],"type":"VEC3"},{"bufferView":0,"byteOffset":2346,"componentType":5123,"count":132,"max":[47],"min":[0],"type":"SCALAR"},{"bufferView":1,"byteOffset":14760,"componentType":5126,"count":48,"max":[0.6619148254394531,0.0926690325140953,0.7438288331031799],"min":[-0.6619148254394531,-0.0926690325140953,-0.7438288331031799],"type":"VEC3"},{"bufferView":1,"byteOffset":15336,"componentType":5126,"count":48,"max":[1.4475759267807007,1.4036632776260376,3.114220142364502],"min":[-0.11672107130289078,-1.0697126388549805,1.8294551372528076],"type":"VEC3"}],"asset":{"generator":"COLLADA2GLTF","version":"2.0"},"bufferViews":[{"buffer":0,"byteLength":2610,"byteOffset":0,"target":34963},{"buffer":0,"byteLength":15912,"byteOffset":2612,"byteStride":12,"target":34962}],"buffers":[{"name":"output","byteLength":18524,"uri":"data:application/octet-stream;base64,"}],"cameras":[{"name":"skp_camera_Last_Saved_SketchUp_View","perspective":{"yfov":0.6108646988868713,"zfar":25.399999618530273,"znear":0.02539999969303608},"type":"perspective"}],"materials":[{"name":"effect-ID1","pbrMetallicRoughness":{"baseColorFactor":[1,1,1,1],"metallicFactor":0,"roughnessFactor":1},"emissiveFactor":[0,0,0],"alphaMode":"OPAQUE","doubleSided":false},{"name":"ID18","pbrMetallicRoughness":{"baseColorFactor":[0,0,0,1],"metallicFactor":0,"roughnessFactor":1},"emissiveFactor":[0,0,0],"alphaMode":"OPAQUE","doubleSided":false}],"meshes":[{"name":"ID3","primitives":[{"attributes":{"NORMAL":1,"POSITION":2},"indices":0,"material":0,"mode":4}]},{"name":"ID16","primitives":[{"attributes":{"NORMAL":4,"POSITION":5},"indices":3,"material":1,"mode":4}]}],"nodes":[{"children":[1],"matrix":[1,0,0,0,0,0,-1,0,0,1,0,0,0,0,0,1],"name":"Z_UP"},{"children":[3,2],"mesh":0,"name":"SketchUp"},{"camera":0,"matrix":[0.8009353280067444,0.5987508893013,0,0,-0.12493100017309189,0.16711729764938354,0.9779897928237915,0,0.5855724215507507,-0.7833064794540405,0.20865260064601898,0,2.3725368976593018,-3.0503952503204346,3.1147918701171875,1],"name":"skp_camera_Last_Saved_SketchUp_View"},{"mesh":1}],"scene":0,"scenes":[{"nodes":[0]}]}
