{"asset":{"generator":"3D Builder","version":"2.0"},"scene":0,"scenes":[{"nodes":[0,1]}],"nodes":[{"mesh":0,"matrix":[1,0,0,0,0,-1.1920928955078125E-7,-0.99999988079071045,0,0,0.99999988079071045,-1.1920928955078125E-7,0,-0.53506594896316528,7.0433287646665121E-8,0.16697481274604797,1]},{"mesh":1,"matrix":[1,0,0,0,0,-1.1920928955078125E-7,-0.99999988079071045,0,0,0.99999988079071045,-1.1920928955078125E-7,0,-0.53506594896316528,7.0433287646665121E-8,0.16697481274604797,1]}],"meshes":[{"primitives":[{"attributes":{"POSITION":0},"mode":4,"indices":1,"material":0}]},{"primitives":[{"attributes":{"POSITION":2,"TEXCOORD_0":3},"mode":4,"indices":4,"material":1}]}],"materials":[{"name":"ID18","pbrMetallicRoughness":{"baseColorFactor":[0,0,0,1],"metallicFactor":0,"roughnessFactor":1},"alphaMode":"OPAQUE"},{"pbrMetallicRoughness":{"baseColorFactor":[1,1,1,1],"metallicFactor":0,"roughnessFactor":1,"baseColorTexture":{"index":0,"texCoord":0}},"alphaMode":"OPAQUE"}],"accessors":[{"bufferView":0,"byteOffset":0,"count":24,"componentType":5126,"type":"VEC3","min":[-0.11672107130289078,-1.0697128772735596,1.829454779624939],"max":[1.4475759267807007,1.4036625623703003,3.1142199039459229]},{"bufferView":1,"byteOffset":0,"count":132,"componentType":5125,"type":"SCALAR"},{"bufferView":2,"byteOffset":0,"count":180,"componentType":5126,"type":"VEC3","min":[-0.37744399905204773,-0.97543424367904663,-5.0528345951761366E-8],"max":[0.37446126341819763,1.1505550146102905,3.1213395595550537]},{"bufferView":3,"byteOffset":0,"count":180,"componentType":5126,"type":"VEC2"},{"bufferView":4,"byteOffset":0,"count":1173,"componentType":5125,"type":"SCALAR"}],"textures":[{"source":0,"sampler":0}],"images":[{"uri":"wood2.jpg"}],"samplers":[{"magFilter":9729,"wrapS":10497,"wrapT":10497}],"bufferViews":[{"buffer":0,"byteOffset":0,"byteLength":288,"byteStride":12,"target":34962},{"buffer":0,"byteOffset":288,"byteLength":528,"target":34963},{"buffer":0,"byteOffset":816,"byteLength":2160,"byteStride":12,"target":34962},{"buffer":0,"byteOffset":2976,"byteLength":1440,"byteStride":8,"target":34962},{"buffer":0,"byteOffset":4416,"byteLength":4692,"target":34963}],"buffers":[{"byteLength":9108,"uri":"slingshot.bin"}]}